<?xml version="1.0" standalone="no"?>
<!DOCTYPE svg PUBLIC "-//W3C//DTD SVG 20010904//EN"
 "http://www.w3.org/TR/2001/REC-SVG-20010904/DTD/svg10.dtd">
<svg version="1.0" xmlns="http://www.w3.org/2000/svg"
 width="256.000000pt" height="256.000000pt" viewBox="0 0 256.000000 256.000000"
 preserveAspectRatio="xMidYMid meet">
<metadata>
Created by potrace 1.11, written by Peter Selinger 2001-2013
</metadata>
<g transform="translate(0.000000,256.000000) scale(0.100000,-0.100000)"
fill="#000000" stroke="none">
<path d="M1245 1834 c-111 -32 -191 -86 -306 -205 -93 -97 -143 -165 -128
-174 6 -4 21 3 34 15 l24 22 -13 -43 c-33 -109 -24 -192 26 -253 35 -43 81
-66 130 -66 47 0 136 44 187 93 47 45 47 44 6 -50 l-27 -62 -103 -41 c-115
-46 -238 -115 -273 -153 -13 -14 -30 -42 -37 -63 -42 -123 123 -176 293 -94
89 44 219 173 291 292 50 81 57 88 110 109 84 33 178 99 251 176 100 105 105
112 92 125 -8 8 -22 -2 -54 -38 -67 -76 -128 -133 -188 -173 -57 -39 -129 -75
-135 -69 -2 2 10 30 27 63 51 102 154 298 181 345 14 25 50 89 81 144 31 54
56 101 56 103 0 8 -227 -11 -236 -19 -1 -2 -13 -22 -27 -46 l-24 -43 -12 28
c-17 40 -43 69 -72 78 -37 13 -109 12 -154 -1z m167 -44 c33 -26 39 -60 22
-126 -56 -213 -260 -475 -388 -498 -17 -3 -36 -1 -43 5 -62 52 200 564 318
622 44 22 61 21 91 -3z m-288 -792 c-73 -145 -145 -228 -214 -246 -34 -8 -44
-7 -65 10 -56 44 -9 124 118 205 36 23 187 103 195 103 1 0 -14 -33 -34 -72z"/>
</g>
</svg>
